<svg width="509" height="204" viewBox="0 0 509 204" fill="none" xmlns="http://www.w3.org/2000/svg">
    <rect width="509" height="204" rx="12" fill="white"/>
    <line x1="23" y1="176" x2="23" y2="28" stroke="black" stroke-width="2"/>
    <rect x="47" y="32" width="127" height="140" rx="12" fill="#A7A7A7" fill-opacity="0.48"/>
    <path d="M124.641 67.75H96.3587C84.0737 67.75 76.75 75.0737 76.75 87.3587V115.608C76.75 127.926 84.0737 135.25 96.3587 135.25H124.607C136.892 135.25 144.216 127.926 144.216 115.641V87.3587C144.25 75.0737 136.926 67.75 124.641 67.75ZM108.812 119.219C108.812 120.434 107.597 121.244 106.484 120.771C102.4 119.016 97.0675 117.396 93.355 116.924L92.7137 116.856C90.655 116.586 88.9675 114.662 88.9675 112.57V86.5825C88.9675 83.9837 91.06 82.06 93.625 82.2625C97.8437 82.6 104.087 84.625 108.002 86.8525C108.542 87.1562 108.812 87.73 108.812 88.3038V119.219ZM132.032 112.536C132.032 114.629 130.345 116.553 128.286 116.823L127.577 116.89C123.899 117.396 118.6 118.983 114.516 120.704C113.402 121.176 112.187 120.366 112.187 119.151V88.27C112.187 87.6625 112.491 87.0887 113.031 86.785C116.946 84.5912 123.055 82.6338 127.206 82.2625H127.341C129.94 82.2625 132.032 84.355 132.032 86.9538V112.536Z" fill="black"/>
    <path d="M211.995 90V79.99L213.29 83.42L202.51 65.5H208.53L216.79 79.255H213.325L221.62 65.5H227.185L216.405 83.42L217.665 79.99V90H211.995ZM236.047 90.28C234.041 90.28 232.256 89.86 230.692 89.02C229.152 88.18 227.927 87.0367 227.017 85.59C226.131 84.12 225.687 82.4517 225.687 80.585C225.687 78.695 226.131 77.0267 227.017 75.58C227.927 74.11 229.152 72.9667 230.692 72.15C232.256 71.31 234.041 70.89 236.047 70.89C238.031 70.89 239.804 71.31 241.367 72.15C242.931 72.9667 244.156 74.0983 245.042 75.545C245.929 76.9917 246.372 78.6717 246.372 80.585C246.372 82.4517 245.929 84.12 245.042 85.59C244.156 87.0367 242.931 88.18 241.367 89.02C239.804 89.86 238.031 90.28 236.047 90.28ZM236.047 85.8C236.957 85.8 237.774 85.59 238.497 85.17C239.221 84.75 239.792 84.155 240.212 83.385C240.632 82.5917 240.842 81.6583 240.842 80.585C240.842 79.4883 240.632 78.555 240.212 77.785C239.792 77.015 239.221 76.42 238.497 76C237.774 75.58 236.957 75.37 236.047 75.37C235.137 75.37 234.321 75.58 233.597 76C232.874 76.42 232.291 77.015 231.847 77.785C231.427 78.555 231.217 79.4883 231.217 80.585C231.217 81.6583 231.427 82.5917 231.847 83.385C232.291 84.155 232.874 84.75 233.597 85.17C234.321 85.59 235.137 85.8 236.047 85.8ZM257.967 90.28C256.404 90.28 255.004 89.9767 253.767 89.37C252.554 88.7633 251.609 87.8417 250.932 86.605C250.255 85.345 249.917 83.7467 249.917 81.81V71.17H255.377V81.005C255.377 82.5683 255.704 83.7233 256.357 84.47C257.034 85.1933 257.979 85.555 259.192 85.555C260.032 85.555 260.779 85.38 261.432 85.03C262.085 84.6567 262.599 84.0967 262.972 83.35C263.345 82.58 263.532 81.6233 263.532 80.48V71.17H268.992V90H263.812V84.82L264.757 86.325C264.127 87.6317 263.194 88.6233 261.957 89.3C260.744 89.9533 259.414 90.28 257.967 90.28ZM274.05 90V71.17H279.265V76.49L278.53 74.95C279.09 73.62 279.989 72.6167 281.225 71.94C282.462 71.24 283.967 70.89 285.74 70.89V75.93C285.507 75.9067 285.297 75.895 285.11 75.895C284.924 75.8717 284.725 75.86 284.515 75.86C283.022 75.86 281.809 76.2917 280.875 77.155C279.965 77.995 279.51 79.3133 279.51 81.11V90H274.05ZM299.421 90V65.5H311.391C314.471 65.5 316.781 66.0833 318.321 67.25C319.884 68.4167 320.666 69.9567 320.666 71.87C320.666 73.1533 320.351 74.2733 319.721 75.23C319.091 76.1633 318.227 76.8867 317.131 77.4C316.034 77.9133 314.774 78.17 313.351 78.17L314.016 76.735C315.556 76.735 316.921 76.9917 318.111 77.505C319.301 77.995 320.222 78.73 320.876 79.71C321.552 80.69 321.891 81.8917 321.891 83.315C321.891 85.415 321.062 87.06 319.406 88.25C317.749 89.4167 315.311 90 312.091 90H299.421ZM305.056 85.73H311.671C313.141 85.73 314.249 85.4967 314.996 85.03C315.766 84.54 316.151 83.77 316.151 82.72C316.151 81.6933 315.766 80.935 314.996 80.445C314.249 79.9317 313.141 79.675 311.671 79.675H304.636V75.545H310.691C312.067 75.545 313.117 75.3117 313.841 74.845C314.587 74.355 314.961 73.62 314.961 72.64C314.961 71.6833 314.587 70.9717 313.841 70.505C313.117 70.015 312.067 69.77 310.691 69.77H305.056V85.73ZM334.758 90.28C332.752 90.28 330.967 89.86 329.403 89.02C327.863 88.18 326.638 87.0367 325.728 85.59C324.842 84.12 324.398 82.4517 324.398 80.585C324.398 78.695 324.842 77.0267 325.728 75.58C326.638 74.11 327.863 72.9667 329.403 72.15C330.967 71.31 332.752 70.89 334.758 70.89C336.742 70.89 338.515 71.31 340.078 72.15C341.642 72.9667 342.867 74.0983 343.753 75.545C344.64 76.9917 345.083 78.6717 345.083 80.585C345.083 82.4517 344.64 84.12 343.753 85.59C342.867 87.0367 341.642 88.18 340.078 89.02C338.515 89.86 336.742 90.28 334.758 90.28ZM334.758 85.8C335.668 85.8 336.485 85.59 337.208 85.17C337.932 84.75 338.503 84.155 338.923 83.385C339.343 82.5917 339.553 81.6583 339.553 80.585C339.553 79.4883 339.343 78.555 338.923 77.785C338.503 77.015 337.932 76.42 337.208 76C336.485 75.58 335.668 75.37 334.758 75.37C333.848 75.37 333.032 75.58 332.308 76C331.585 76.42 331.002 77.015 330.558 77.785C330.138 78.555 329.928 79.4883 329.928 80.585C329.928 81.6583 330.138 82.5917 330.558 83.385C331.002 84.155 331.585 84.75 332.308 85.17C333.032 85.59 333.848 85.8 334.758 85.8ZM348.733 90V71.17H353.948V76.49L353.213 74.95C353.773 73.62 354.671 72.6167 355.908 71.94C357.145 71.24 358.65 70.89 360.423 70.89V75.93C360.19 75.9067 359.98 75.895 359.793 75.895C359.606 75.8717 359.408 75.86 359.198 75.86C357.705 75.86 356.491 76.2917 355.558 77.155C354.648 77.995 354.193 79.3133 354.193 81.11V90H348.733ZM363.704 90V71.17H368.919V76.49L368.184 74.95C368.744 73.62 369.642 72.6167 370.879 71.94C372.115 71.24 373.62 70.89 375.394 70.89V75.93C375.16 75.9067 374.95 75.895 374.764 75.895C374.577 75.8717 374.379 75.86 374.169 75.86C372.675 75.86 371.462 76.2917 370.529 77.155C369.619 77.995 369.164 79.3133 369.164 81.11V90H363.704ZM387.463 90.28C385.457 90.28 383.672 89.86 382.108 89.02C380.568 88.18 379.343 87.0367 378.433 85.59C377.547 84.12 377.103 82.4517 377.103 80.585C377.103 78.695 377.547 77.0267 378.433 75.58C379.343 74.11 380.568 72.9667 382.108 72.15C383.672 71.31 385.457 70.89 387.463 70.89C389.447 70.89 391.22 71.31 392.783 72.15C394.347 72.9667 395.572 74.0983 396.458 75.545C397.345 76.9917 397.788 78.6717 397.788 80.585C397.788 82.4517 397.345 84.12 396.458 85.59C395.572 87.0367 394.347 88.18 392.783 89.02C391.22 89.86 389.447 90.28 387.463 90.28ZM387.463 85.8C388.373 85.8 389.19 85.59 389.913 85.17C390.637 84.75 391.208 84.155 391.628 83.385C392.048 82.5917 392.258 81.6583 392.258 80.585C392.258 79.4883 392.048 78.555 391.628 77.785C391.208 77.015 390.637 76.42 389.913 76C389.19 75.58 388.373 75.37 387.463 75.37C386.553 75.37 385.737 75.58 385.013 76C384.29 76.42 383.707 77.015 383.263 77.785C382.843 78.555 382.633 79.4883 382.633 80.585C382.633 81.6583 382.843 82.5917 383.263 83.385C383.707 84.155 384.29 84.75 385.013 85.17C385.737 85.59 386.553 85.8 387.463 85.8ZM405.23 90L398.44 71.17H403.585L409.22 87.375H406.77L412.65 71.17H417.27L422.975 87.375H420.525L426.335 71.17H431.165L424.34 90H419.055L414.05 76.105H415.66L410.48 90H405.23ZM442.536 90.28C440.389 90.28 438.499 89.86 436.866 89.02C435.256 88.18 434.008 87.0367 433.121 85.59C432.234 84.12 431.791 82.4517 431.791 80.585C431.791 78.695 432.223 77.0267 433.086 75.58C433.973 74.11 435.174 72.9667 436.691 72.15C438.208 71.31 439.923 70.89 441.836 70.89C443.679 70.89 445.336 71.2867 446.806 72.08C448.299 72.85 449.478 73.97 450.341 75.44C451.204 76.8867 451.636 78.625 451.636 80.655C451.636 80.865 451.624 81.11 451.601 81.39C451.578 81.6467 451.554 81.8917 451.531 82.125H436.236V78.94H448.661L446.561 79.885C446.561 78.905 446.363 78.0533 445.966 77.33C445.569 76.6067 445.021 76.0467 444.321 75.65C443.621 75.23 442.804 75.02 441.871 75.02C440.938 75.02 440.109 75.23 439.386 75.65C438.686 76.0467 438.138 76.6183 437.741 77.365C437.344 78.0883 437.146 78.9517 437.146 79.955V80.795C437.146 81.8217 437.368 82.7317 437.811 83.525C438.278 84.295 438.919 84.89 439.736 85.31C440.576 85.7067 441.556 85.905 442.676 85.905C443.679 85.905 444.554 85.7533 445.301 85.45C446.071 85.1467 446.771 84.6917 447.401 84.085L450.306 87.235C449.443 88.215 448.358 88.9733 447.051 89.51C445.744 90.0233 444.239 90.28 442.536 90.28ZM463.356 90.28C461.583 90.28 459.984 89.8833 458.561 89.09C457.138 88.2733 456.006 87.1417 455.166 85.695C454.349 84.2483 453.941 82.545 453.941 80.585C453.941 78.6017 454.349 76.8867 455.166 75.44C456.006 73.9933 457.138 72.8733 458.561 72.08C459.984 71.2867 461.583 70.89 463.356 70.89C464.943 70.89 466.331 71.24 467.521 71.94C468.711 72.64 469.633 73.7017 470.286 75.125C470.939 76.5483 471.266 78.3683 471.266 80.585C471.266 82.7783 470.951 84.5983 470.321 86.045C469.691 87.4683 468.781 88.53 467.591 89.23C466.424 89.93 465.013 90.28 463.356 90.28ZM464.301 85.8C465.188 85.8 465.993 85.59 466.716 85.17C467.439 84.75 468.011 84.155 468.431 83.385C468.874 82.5917 469.096 81.6583 469.096 80.585C469.096 79.4883 468.874 78.555 468.431 77.785C468.011 77.015 467.439 76.42 466.716 76C465.993 75.58 465.188 75.37 464.301 75.37C463.391 75.37 462.574 75.58 461.851 76C461.128 76.42 460.544 77.015 460.101 77.785C459.681 78.555 459.471 79.4883 459.471 80.585C459.471 81.6583 459.681 82.5917 460.101 83.385C460.544 84.155 461.128 84.75 461.851 85.17C462.574 85.59 463.391 85.8 464.301 85.8ZM469.236 90V86.15L469.341 80.55L468.991 74.985V64.03H474.451V90H469.236ZM205.905 139V114.5H217.875C220.955 114.5 223.265 115.083 224.805 116.25C226.368 117.417 227.15 118.957 227.15 120.87C227.15 122.153 226.835 123.273 226.205 124.23C225.575 125.163 224.712 125.887 223.615 126.4C222.518 126.913 221.258 127.17 219.835 127.17L220.5 125.735C222.04 125.735 223.405 125.992 224.595 126.505C225.785 126.995 226.707 127.73 227.36 128.71C228.037 129.69 228.375 130.892 228.375 132.315C228.375 134.415 227.547 136.06 225.89 137.25C224.233 138.417 221.795 139 218.575 139H205.905ZM211.54 134.73H218.155C219.625 134.73 220.733 134.497 221.48 134.03C222.25 133.54 222.635 132.77 222.635 131.72C222.635 130.693 222.25 129.935 221.48 129.445C220.733 128.932 219.625 128.675 218.155 128.675H211.12V124.545H217.175C218.552 124.545 219.602 124.312 220.325 123.845C221.072 123.355 221.445 122.62 221.445 121.64C221.445 120.683 221.072 119.972 220.325 119.505C219.602 119.015 218.552 118.77 217.175 118.77H211.54V134.73ZM241.243 139.28C239.236 139.28 237.451 138.86 235.888 138.02C234.348 137.18 233.123 136.037 232.213 134.59C231.326 133.12 230.883 131.452 230.883 129.585C230.883 127.695 231.326 126.027 232.213 124.58C233.123 123.11 234.348 121.967 235.888 121.15C237.451 120.31 239.236 119.89 241.243 119.89C243.226 119.89 244.999 120.31 246.563 121.15C248.126 121.967 249.351 123.098 250.238 124.545C251.124 125.992 251.568 127.672 251.568 129.585C251.568 131.452 251.124 133.12 250.238 134.59C249.351 136.037 248.126 137.18 246.563 138.02C244.999 138.86 243.226 139.28 241.243 139.28ZM241.243 134.8C242.153 134.8 242.969 134.59 243.693 134.17C244.416 133.75 244.988 133.155 245.408 132.385C245.828 131.592 246.038 130.658 246.038 129.585C246.038 128.488 245.828 127.555 245.408 126.785C244.988 126.015 244.416 125.42 243.693 125C242.969 124.58 242.153 124.37 241.243 124.37C240.333 124.37 239.516 124.58 238.793 125C238.069 125.42 237.486 126.015 237.043 126.785C236.623 127.555 236.413 128.488 236.413 129.585C236.413 130.658 236.623 131.592 237.043 132.385C237.486 133.155 238.069 133.75 238.793 134.17C239.516 134.59 240.333 134.8 241.243 134.8ZM264.177 139.28C262.171 139.28 260.386 138.86 258.822 138.02C257.282 137.18 256.057 136.037 255.147 134.59C254.261 133.12 253.817 131.452 253.817 129.585C253.817 127.695 254.261 126.027 255.147 124.58C256.057 123.11 257.282 121.967 258.822 121.15C260.386 120.31 262.171 119.89 264.177 119.89C266.161 119.89 267.934 120.31 269.497 121.15C271.061 121.967 272.286 123.098 273.172 124.545C274.059 125.992 274.502 127.672 274.502 129.585C274.502 131.452 274.059 133.12 273.172 134.59C272.286 136.037 271.061 137.18 269.497 138.02C267.934 138.86 266.161 139.28 264.177 139.28ZM264.177 134.8C265.087 134.8 265.904 134.59 266.627 134.17C267.351 133.75 267.922 133.155 268.342 132.385C268.762 131.592 268.972 130.658 268.972 129.585C268.972 128.488 268.762 127.555 268.342 126.785C267.922 126.015 267.351 125.42 266.627 125C265.904 124.58 265.087 124.37 264.177 124.37C263.267 124.37 262.451 124.58 261.727 125C261.004 125.42 260.421 126.015 259.977 126.785C259.557 127.555 259.347 128.488 259.347 129.585C259.347 130.658 259.557 131.592 259.977 132.385C260.421 133.155 261.004 133.75 261.727 134.17C262.451 134.59 263.267 134.8 264.177 134.8ZM282.667 135.15L282.807 128.5L291.592 120.17H298.102L289.667 128.745L286.832 131.055L282.667 135.15ZM278.152 139V113.03H283.612V139H278.152ZM292.187 139L285.817 131.09L289.247 126.855L298.802 139H292.187ZM311.554 139V114.5H317.224V134.38H329.509V139H311.554ZM332.292 139V120.17H337.752V139H332.292ZM335.022 117.545C334.019 117.545 333.202 117.253 332.572 116.67C331.942 116.087 331.627 115.363 331.627 114.5C331.627 113.637 331.942 112.913 332.572 112.33C333.202 111.747 334.019 111.455 335.022 111.455C336.026 111.455 336.842 111.735 337.472 112.295C338.102 112.832 338.417 113.532 338.417 114.395C338.417 115.305 338.102 116.063 337.472 116.67C336.866 117.253 336.049 117.545 335.022 117.545ZM349.155 139.28C347.545 139.28 345.993 139.093 344.5 138.72C343.03 138.323 341.863 137.833 341 137.25L342.82 133.33C343.683 133.867 344.698 134.31 345.865 134.66C347.055 134.987 348.221 135.15 349.365 135.15C350.625 135.15 351.511 134.998 352.025 134.695C352.561 134.392 352.83 133.972 352.83 133.435C352.83 132.992 352.62 132.665 352.2 132.455C351.803 132.222 351.266 132.047 350.59 131.93C349.913 131.813 349.166 131.697 348.35 131.58C347.556 131.463 346.751 131.312 345.935 131.125C345.118 130.915 344.371 130.612 343.695 130.215C343.018 129.818 342.47 129.282 342.05 128.605C341.653 127.928 341.455 127.053 341.455 125.98C341.455 124.79 341.793 123.74 342.47 122.83C343.17 121.92 344.173 121.208 345.48 120.695C346.786 120.158 348.35 119.89 350.17 119.89C351.453 119.89 352.76 120.03 354.09 120.31C355.42 120.59 356.528 120.998 357.415 121.535L355.595 125.42C354.685 124.883 353.763 124.522 352.83 124.335C351.92 124.125 351.033 124.02 350.17 124.02C348.956 124.02 348.07 124.183 347.51 124.51C346.95 124.837 346.67 125.257 346.67 125.77C346.67 126.237 346.868 126.587 347.265 126.82C347.685 127.053 348.233 127.24 348.91 127.38C349.586 127.52 350.321 127.648 351.115 127.765C351.931 127.858 352.748 128.01 353.565 128.22C354.381 128.43 355.116 128.733 355.77 129.13C356.446 129.503 356.995 130.028 357.415 130.705C357.835 131.358 358.045 132.222 358.045 133.295C358.045 134.462 357.695 135.5 356.995 136.41C356.295 137.297 355.28 137.997 353.95 138.51C352.643 139.023 351.045 139.28 349.155 139.28ZM369.114 139.28C366.897 139.28 365.17 138.72 363.934 137.6C362.697 136.457 362.079 134.765 362.079 132.525V116.005H367.539V132.455C367.539 133.248 367.749 133.867 368.169 134.31C368.589 134.73 369.16 134.94 369.884 134.94C370.747 134.94 371.482 134.707 372.089 134.24L373.559 138.09C372.999 138.487 372.322 138.79 371.529 139C370.759 139.187 369.954 139.28 369.114 139.28ZM359.174 124.79V120.59H372.229V124.79H359.174Z" fill="#151619"/>
</svg>
